<?xml version="1.0" encoding="utf-8"?>
<!-- Generator: Adobe Illustrator 22.1.0, SVG Export Plug-In . SVG Version: 6.00 Build 0)  -->
<svg version="1.1" id="Layer_1" xmlns="http://www.w3.org/2000/svg" xmlns:xlink="http://www.w3.org/1999/xlink" x="0px" y="0px"
	 viewBox="0 0 762.6 511.3" style="enable-background:new 0 0 762.6 511.3;" xml:space="preserve">
<style type="text/css">
	.st0{fill:#FFFFFF;}
</style>
<g>
	<g>
		<path class="st0" d="M458.1,102c11.5,62.1,26.7,126,45.2,189.9c17.9,61.7,39.5,122.9,64.2,181.9c-1.5,0.3-3,0.5-4.4,0.8
			c-33,5.2-59.8,7.7-84.5,7.7c-2.7,0-5.4,0-8.1-0.1c-25.6-0.5-50.2-3.6-73-9.2c-25.4-34.3-43.5-73.5-53.8-116.5
			c-5.2-21.8-8.4-44.6-9.5-67.8c-1.3-25.1-0.4-50.9,2.7-78.7c3.7-33,10.3-66.6,20.3-102.8l0,0l0,0c0.4-1.6,0.9-3.2,1.4-5
			c0,0,0,0,0-0.1H458.1 M463.9,95c-37.1,0-73.7,0-110.7,0c-1,3.6-2,6.9-2.9,10.2c-9.4,34.2-16.5,68.7-20.5,103.9
			c-3,26.6-4.1,53.2-2.7,79.9c1.1,23.2,4.3,46.3,9.7,69c10.4,43.5,28.5,83.4,55.2,119.3c0.8,1.1,2.2,1.9,3.5,2.3
			c24.5,6,49.5,8.9,74.8,9.4c2.8,0.1,5.5,0.1,8.3,0.1c28.7,0,57.2-3.3,85.6-7.8c4.3-0.7,8.7-1.6,13.2-2.4
			c-26.3-62-48.6-124.9-67.3-189.2C491.4,225.7,475.8,160.8,463.9,95L463.9,95z"/>
	</g>
	<g>
		<path class="st0" d="M607.9,68.5c25.8,4.9,51.5,9.8,78.2,14.8c0.1,0.2,0.1,0.5,0.2,0.7c1.9,6.3,3.8,12.7,5.5,19.1
			c7.3,27.2,12.3,52.1,15.4,76.1c4,30.8,4.8,59.3,2.4,87.2c-2.2,27-7.4,52.9-15.5,77.2c-12.4,36.9-31.4,71.5-56.4,102.8l0,0l0,0
			c-0.6,0.8-1.3,1.6-2.1,2.5c-1.4,1.6-2.9,3.3-4.2,5.4l0,0l0,0c-1.7,2.7-4.3,4.4-8.8,5.8l0,0l0,0c-13,4.4-24.1,7.5-34.5,9.8
			c-18.4-43.7-35-88.8-50.8-137.6C575.4,258.9,597.9,174.8,607.9,68.5 M601.6,60.2c-8.3,94.9-27.4,186.8-71.9,271.6
			c16,49.7,33.8,98.4,54.1,146.3c14.1-2.6,27.6-6.6,41-11.1c5.1-1.7,9.4-4.1,12.4-8.7c1.8-2.6,4.1-4.9,6-7.4
			c25.3-31.7,44.7-66.6,57.6-105c8.6-25.6,13.7-51.9,15.9-78.8c2.5-29.7,1.3-59.2-2.5-88.7c-3.4-26-8.8-51.7-15.6-77.1
			c-2.1-8-4.6-16.1-7-24.1C661.5,71.6,631.6,65.9,601.6,60.2L601.6,60.2z"/>
	</g>
	<g>
		<path class="st0" d="M208.3,205.3c0.3,0.6,0.5,1.2,0.8,1.8c2,4.4,3.9,8.6,5.9,12.9c19.1,41.2,42.4,78.9,69.2,111.9
			c7.6,9.3,15.2,18,22.5,25.8c4.6,4.9,9.4,9.7,14,14.2c2.5,2.5,5.1,5,7.6,7.6c0.2,0.2,0.3,0.4,0.4,0.6l0,0l0,0.1
			c8.6,29.4,21.4,57.6,37.9,83.9c0.1,0.1,0.1,0.2,0.2,0.3c-4.4-1.3-8.7-2.7-13-4.2c-19.5-6.7-38-14.5-54.7-23.2
			c-36.5-19-65.4-42.1-88.4-70.6c-22.1-27.5-38-59.9-47.3-96.3c-3.7-14.6-6.4-29.8-8.2-46.6C172.6,217.5,190.5,211.4,208.3,205.3
			 M212.1,196.6c-21.5,7.4-42.9,14.7-64.3,22.1c0.1,1.2,0.1,2.1,0.2,2.9c1.7,16.9,4.4,33.8,8.7,50.3c9.3,36.4,25,69.6,48.6,99
			c24.9,30.8,55.7,54.2,90.7,72.4c17.9,9.4,36.5,17.1,55.7,23.7c10.2,3.4,20.6,6.4,30.8,9.6c0.1-0.3,0.2-0.4,0.4-0.8
			c-3.4-5.1-6.9-10.1-10.2-15.3c-16.2-25.7-28.6-53.1-37.2-82.2c-0.4-1.3-1.2-2.7-2.2-3.7c-7.1-7.2-14.6-14.2-21.5-21.6
			c-7.7-8.2-15.1-16.8-22.2-25.5c-27.5-33.9-49.9-70.9-68.2-110.4C218.2,210.4,215.2,203.6,212.1,196.6L212.1,196.6z"/>
	</g>
	<g>
		<path class="st0" d="M587.9,68c-4.2,44.7-10.9,85.4-20.4,124c-10,40.6-22.8,77.4-39.1,112c-0.9-3.1-1.8-6.3-2.7-9.4
			c-5.3-18.7-10.8-38-16.1-57c-0.2-0.7-0.1-1.8,0.1-2.4l0,0l0,0c14.5-38.6,29.3-77.8,43.7-115.7c4-10.6,8-21.2,12-31.8
			c1.2-3.2,2.4-6.4,3.5-9.5c0.4-1,0.8-2,1.1-3.1C575.7,72.8,581.7,70.4,587.9,68 M595.9,57.4c-10.7,4.1-20.7,8.1-31.2,12.3
			c-1.9,5.2-3.8,10.3-5.7,15.4c-18.6,49.3-37.3,98.3-55.7,147.6c-0.8,2-0.9,4.7-0.4,6.7c6.9,24.9,14,49.7,21.1,74.5
			c0.8,2.8,1.8,5.6,2.9,9.1c21.4-41.7,36.5-84.7,47.5-129.3C585.3,149,592,103.6,595.9,57.4L595.9,57.4z"/>
	</g>
	<g>
		<path class="st0" d="M235.4,216c6.4,4,13,7.5,20,10.2c1.5,2.8,2.9,5.6,4.3,8.3c5.2,10.1,10.1,19.6,15.5,29.1
			c10.3,18.4,23.2,37.4,40.4,59.9c0.6,0.8,1.1,2,1.3,3.2c1.3,5.9,2.5,11.8,3.7,17.7c-14.8-16.1-27.6-31.8-38.7-47.7
			C264.3,271.6,248.8,244.5,235.4,216 M219,195.9c15.4,37.1,34.2,72,57.1,104.8c16.4,23.4,35.1,44.8,55.4,65.3
			c0.2-0.7,0.3-0.9,0.3-1.1c-2.6-13.2-5.2-26.5-8-39.7c-0.4-2.1-1.3-4.2-2.6-5.9c-14.5-18.9-28.2-38.4-39.9-59.1
			c-7.1-12.8-13.8-26-20.9-39.6C245.4,215.3,232.2,205.8,219,195.9L219,195.9z"/>
	</g>
	<g>
		<path class="st0" d="M713.3,350.3c9,4,18.3,6.4,28.1,7.3c-10.4,21.6-22.5,39.6-36.8,54.8c-11.3,12.1-24.1,22.1-38.1,29.9
			c8.3-11.8,15.6-23.5,22.2-35.5C698.7,388.4,706.8,369.9,713.3,350.3 M709.1,340.4c-6.8,22.2-15.6,43-26.6,63
			c-10.9,19.9-23.7,38.6-38,56.4c25.2-8.9,46.9-23.2,65.1-42.6c18.2-19.3,31.7-41.7,42.5-66.3c-0.9,0-1.7,0-2.6,0
			C735,350.9,721.7,347.4,709.1,340.4L709.1,340.4z"/>
	</g>
	<g>
		<path class="st0" d="M122.8,250.7c1.5,0,3,0.4,5.5,2.5c3.2,2.8,6.5,5.3,10,7.9c0.8,0.6,1.5,1.2,2.3,1.8c5,24,12.7,46.5,22.9,67.4
			c-3.5-4.2-7.1-8.6-10.5-13c-15.3-19.6-29.7-41.1-43.7-65.3c4.1-0.2,8.2-0.5,12.3-1.1C122,250.8,122.4,250.7,122.8,250.7
			 M122.8,243.7c-0.7,0-1.4,0.1-2.2,0.2c-7.4,1.1-14.9,1.1-23,1.5c30,53.7,65.7,102.1,112.7,141.7c-33.2-36.9-53.6-80.1-63.3-128.2
			c-4.9-3.8-9.7-7.1-14.1-10.9C129.8,245.3,126.8,243.7,122.8,243.7L122.8,243.7z"/>
	</g>
	<g>
		<path class="st0" d="M93.6,249.1c0.4,1,0.5,1.6,0.7,2.2c12.6,27.5,27,54.1,44.1,79.2c17.1,25.2,36.7,48.2,59.6,68.2
			c26.8,23.6,56.8,42,90.6,53.9c9.5,3.4,19.2,6.2,28.9,9.3c0.1-0.3,0.2-0.5,0.3-0.8c-0.9-0.4-1.7-0.8-2.5-1.2
			c-14.3-7.4-28.9-14.6-43-22.4c-14.4-8.1-26.9-19.1-40.3-28.8c-35.3-25.7-65.9-56.1-92.6-90.5c-7.9-10.2-15.3-21-22.4-31.9
			C109.1,274.3,101.5,261.8,93.6,249.1L93.6,249.1z"/>
	</g>
	<g>
		<path class="st0" d="M719.1,331c2.9,2.2,5.9,4.5,8.8,6.7c-3.2-1-6.4-2.2-9.6-3.8C718.6,332.9,718.9,332,719.1,331 M715.1,319.1
			c-1.8,6.4-3.4,12.4-5,18.4c11.1,6.1,22.5,9.7,34.8,9.7c2.2,0,4.5-0.1,6.8-0.4C739.6,337.7,727.5,328.5,715.1,319.1L715.1,319.1z"
			/>
	</g>
</g>
</svg>
