<?xml version="1.0" encoding="utf-8"?>
<!-- Generator: Adobe Illustrator 22.1.0, SVG Export Plug-In . SVG Version: 6.00 Build 0)  -->
<svg version="1.1" id="Layer_1" xmlns="http://www.w3.org/2000/svg" xmlns:xlink="http://www.w3.org/1999/xlink" x="0px" y="0px"
	 viewBox="0 0 762.6 511.3" style="enable-background:new 0 0 762.6 511.3;" xml:space="preserve">
<style type="text/css">
	.st0{fill:#FFFFFF;}
</style>
<g>
	<path class="st0" d="M306.2,42.6c41.9,0,83.4,0,125.4,0c13.5,74.6,31.1,148.1,52.2,220.8c21.1,72.8,46.4,144.1,76.2,214.3
		c-5.1,0.9-10,1.9-14.9,2.7c-35.2,5.6-70.6,9.5-106.3,8.7c-28.6-0.6-56.9-3.9-84.7-10.7c-1.5-0.4-3.1-1.4-4-2.6
		c-30.2-40.7-50.7-85.9-62.5-135.2c-6.1-25.7-9.7-51.9-11-78.2c-1.6-30.2-0.3-60.4,3.1-90.5c4.5-39.9,12.6-79,23.2-117.7
		C303.9,50.4,305.1,46.7,306.2,42.6z"/>
	<path class="st0" d="M587.6,3.2c34,6.5,67.8,12.9,101.9,19.3c2.7,9.1,5.5,18.2,7.9,27.3c7.7,28.7,13.9,57.8,17.7,87.3
		c4.3,33.4,5.6,66.9,2.8,100.5c-2.5,30.5-8.3,60.3-18,89.3c-14.6,43.5-36.5,83-65.2,118.9c-2.2,2.8-4.8,5.4-6.8,8.4
		c-3.4,5.2-8.3,7.9-14.1,9.8c-15.1,5.1-30.4,9.6-46.4,12.6c-23-54.2-43.2-109.4-61.3-165.7C556.6,214.8,578.2,110.7,587.6,3.2z"/>
	<path class="st0" d="M339.3,474.8c-11.6-3.6-23.4-7-34.9-10.9c-21.7-7.4-42.8-16.2-63.1-26.8c-39.6-20.6-74.5-47.1-102.7-82
		C111.8,321.8,94,284.2,83.5,243c-4.8-18.7-7.9-37.8-9.8-57c-0.1-0.9-0.1-1.9-0.2-3.3c24.2-8.3,48.4-16.6,72.8-25
		c3.6,7.9,7,15.6,10.5,23.1c20.8,44.8,46.2,86.7,77.3,125.1c8.1,9.9,16.5,19.6,25.2,28.9c7.8,8.4,16.2,16.3,24.3,24.5
		c1.1,1.1,2.1,2.7,2.5,4.2c9.7,33,23.8,64,42.1,93.1c3.7,5.9,7.7,11.5,11.5,17.3C339.5,474.3,339.4,474.5,339.3,474.8z"/>
	<path class="st0" d="M545.7,13.9C557.6,9.2,569,4.7,581.1,0c-4.4,52.4-12,103.8-24.4,154.4c-12.4,50.5-29.6,99.3-53.8,146.5
		c-1.3-3.9-2.4-7.1-3.3-10.3c-8-28.1-16.1-56.2-23.9-84.4c-0.6-2.3-0.5-5.3,0.4-7.6c20.9-55.8,42-111.4,63.1-167.2
		C541.4,25.6,543.5,19.8,545.7,13.9z"/>
	<path class="st0" d="M154.1,156.9c15,11.2,30,22,46.9,27.9c8.1,15.5,15.6,30.4,23.7,44.9c13.2,23.5,28.8,45.6,45.2,67
		c1.4,1.9,2.4,4.3,2.9,6.7c3.2,15,6.1,30,9.1,45c0,0.2-0.1,0.4-0.3,1.2c-23-23.2-44.2-47.5-62.8-74
		C192.9,238.5,171.5,198.9,154.1,156.9z"/>
	<path class="st0" d="M636.3,455.9c16.1-20.2,30.6-41.3,43-63.9c12.4-22.7,22.4-46.3,30.1-71.4c15.1,8.4,31.1,12.4,48.8,11.9
		c-12.2,27.9-27.5,53.2-48.1,75.1C689.4,429.6,664.9,445.8,636.3,455.9z"/>
	<path class="st0" d="M16.6,213c9.2-0.5,17.7-0.5,26.1-1.7c5.7-0.8,9.8,1.1,13.9,4.6c5,4.3,10.4,8.1,16,12.4
		c11,54.5,34.1,103.4,71.7,145.2C91,328.7,50.6,273.8,16.6,213z"/>
	<path class="st0" d="M12.1,217.2c9,14.4,17.5,28.5,26.5,42.2c8.1,12.3,16.4,24.5,25.4,36.1c30.3,38.9,64.9,73.4,104.9,102.5
		c15.1,11,29.3,23.4,45.6,32.6c16,8.9,32.5,17,48.7,25.4c0.9,0.5,1.8,0.9,2.8,1.4c-0.1,0.3-0.2,0.6-0.3,0.9
		c-10.9-3.5-21.9-6.7-32.7-10.5c-38.3-13.5-72.2-34.4-102.6-61.1c-25.9-22.7-48.1-48.8-67.5-77.3c-19.4-28.4-35.7-58.5-50-89.7
		C12.7,219,12.5,218.3,12.1,217.2z"/>
	<path class="st0" d="M757.6,328c-16.9,1.8-32.3-2.4-47.1-10.6c1.9-6.9,3.7-13.6,5.7-20.9C730.2,307.2,743.9,317.6,757.6,328z"/>
</g>
</svg>
