<?xml version="1.0" encoding="utf-8"?>
<!-- Generator: Adobe Illustrator 22.1.0, SVG Export Plug-In . SVG Version: 6.00 Build 0)  -->
<svg version="1.1" id="Layer_1" xmlns="http://www.w3.org/2000/svg" xmlns:xlink="http://www.w3.org/1999/xlink" x="0px" y="0px"
	 viewBox="0 0 841.9 595.3" style="enable-background:new 0 0 841.9 595.3;" xml:space="preserve">
<style type="text/css">
	.st0{fill:#28B1FF;}
</style>
<g>
	<path class="st0" d="M421.1,414.1c-3.8,0-7.3-1.4-9.9-4.1L205.6,204.4c-4.1-4.1-5.3-10.1-3.1-15.3c2.1-5.3,7.2-8.7,12.9-8.7H272
		c3.8,0,7.3,1.4,9.9,4.1L421,323.6l139.1-139.2c2.6-2.6,6.2-4.1,9.9-4.1h56.6c5.6,0,10.7,3.4,12.9,8.6c2.2,5.2,1.1,11.1-2.8,15.3
		L431,410C428.4,412.7,424.9,414.1,421.1,414.1z M421,394.3l195.9-195.8h-45.3L427.5,342.8c-1.7,1.7-4,2.7-6.4,2.7s-4.7-0.9-6.4-2.7
		L270.4,198.5h-45.3L421,394.3z"/>
	<path class="st0" d="M626.6,184.4c4,0,7.6,2.4,9.2,6.2c1.6,3.8,0.7,8.1-2,11L428.2,407.2c-1.9,1.9-4.4,2.9-7.1,2.9
		c-2.7,0-5.2-1-7.1-2.9L208.4,201.6c-2.9-2.9-3.8-7.2-2.2-10.9c1.5-3.8,5.1-6.2,9.2-6.2H272c2.7,0,5.2,1,7.1,2.9L421,329.3
		l141.9-142c1.9-1.9,4.4-2.9,7.1-2.9H626.6 M421.1,341.5c-1.3,0-2.5-0.5-3.5-1.5L272.1,194.5h-56.6L421,400l205.6-205.5H570
		L424.7,340C423.7,341,422.4,341.5,421.1,341.5 M626.6,176.4H570c-4.8,0-9.4,1.9-12.8,5.2L421,318L284.8,181.7
		c-3.4-3.4-7.9-5.2-12.8-5.2h-56.6c-7.4,0-13.9,4.4-16.6,11.1c-2.8,6.7-1.3,14.4,3.9,19.6l205.6,205.6c3.4,3.4,7.9,5.2,12.8,5.2
		c4.8,0,9.4-1.9,12.8-5.2l205.6-205.6l0.1-0.1l0.1-0.1c4.9-5.3,6.3-13,3.5-19.6C640.3,180.8,633.8,176.4,626.6,176.4L626.6,176.4z
		 M573.3,202.5h34L421,388.7L234.8,202.5h34l143.2,143.2c2.5,2.5,5.7,3.8,9.2,3.8s6.7-1.4,9.2-3.8L573.3,202.5L573.3,202.5z"/>
</g>
</svg>
