<?xml version="1.0" encoding="utf-8"?>
<!-- Generator: Adobe Illustrator 22.1.0, SVG Export Plug-In . SVG Version: 6.00 Build 0)  -->
<svg version="1.1" id="Layer_1" xmlns="http://www.w3.org/2000/svg" xmlns:xlink="http://www.w3.org/1999/xlink" x="0px" y="0px"
	 viewBox="0 0 100 100" style="enable-background:new 0 0 100 100;" xml:space="preserve">
<style type="text/css">
	.st0{fill:#28B1FF;}
</style>
<g>
	<path class="st0" d="M71.5,66.1C74.3,76,77.2,86,80,95.9c-0.1,0-0.2,0-0.3,0c-1.4,0-2.8,0-4.2,0c-0.2,0-0.3-0.1-0.4-0.3
		c-2.8-9.8-5.6-19.5-8.4-29.3c-0.1-0.2-0.2-0.3-0.4-0.3c-9.7,0-19.4,0-29.2,0c-0.2,0-0.3,0.1-0.4,0.3c-2.1,7.3-4.2,14.7-6.3,22
		c-0.7,2.4-1.4,4.9-2.1,7.3c0.1,0.3,0,0.4-0.3,0.4c-1.4,0-2.8,0-4.2,0c-0.1,0-0.2,0-0.3,0c2.8-10,5.7-19.9,8.6-29.9
		c-6.5,0-13,0-19.5,0c0-17.1,0-34.2,0-51.4c0.1,0,0.3,0,0.4,0c11.1,0,22.3,0,33.4,0c0.3,0,0.5-0.1,0.6-0.4c0.9-3.3,1.9-6.6,2.8-9.9
		c0-0.3,0.1-0.4,0.4-0.4c1.1,0,2.2,0,3.2,0c0.2,0,0.3,0.1,0.4,0.3c1,3.4,1.9,6.7,2.9,10.1c0.1,0.3,0.2,0.3,0.5,0.3
		c11.1,0,22.3,0,33.4,0c0.1,0,0.3,0,0.5,0c0,17.1,0.1,34.2,0.1,51.4C84.6,66.1,78.1,66.1,71.5,66.1z M17.2,59.5
		c10.1-6.4,20.2-12.8,30.3-19.1C37.3,34,27.3,27.6,17.2,21.2C17.2,34,17.2,46.7,17.2,59.5z M56.1,40.4c10.1,6.4,20.2,12.8,30.2,19.1
		c0-12.8,0-25.5,0-38.3C76.3,27.6,66.2,34,56.1,40.4z M80.7,61.4c-0.2-0.1-0.2-0.2-0.3-0.2c-3-1.9-5.9-3.7-8.9-5.6
		c-6.5-4.1-13-8.2-19.5-12.3c-0.2-0.1-0.3-0.1-0.5,0c-0.9,0.6-1.7,1.1-2.6,1.6c-8.6,5.4-17.2,10.9-25.7,16.3
		c-0.1,0.1-0.2,0.1-0.3,0.2C42.2,61.4,61.4,61.4,80.7,61.4z M80.7,19.3c-19.3,0-38.5,0-57.7,0c0.1,0.1,0.2,0.2,0.3,0.2
		c9.4,5.9,18.8,11.9,28.2,17.9c0.3,0.2,0.4,0.2,0.7,0c9-5.7,18-11.4,27.1-17.1C79.7,20,80.1,19.7,80.7,19.3z"/>
	<path class="st0" d="M54.1,93.1c-1.5,0-3,0-4.6,0c0-7.2,0-14.4,0-21.7c1.5,0,3.1,0,4.6,0C54.1,78.7,54.1,85.9,54.1,93.1z"/>
</g>
</svg>
