<?xml version="1.0" encoding="utf-8"?>
<!-- Generator: Adobe Illustrator 22.1.0, SVG Export Plug-In . SVG Version: 6.00 Build 0)  -->
<svg version="1.1" id="Layer_1" xmlns="http://www.w3.org/2000/svg" xmlns:xlink="http://www.w3.org/1999/xlink" x="0px" y="0px"
	 viewBox="0 0 100 100" style="enable-background:new 0 0 100 100;" xml:space="preserve">
<style type="text/css">
	.st0{fill:#FFFFFF;}
</style>
<g>
	<path class="st0" d="M8,42.6c0.3-0.5,0.9-1,1.4-1.3c3.4-2.6,8.6-5.2,18.6-6.8v-9.4c-8,1.1-14.3,2.9-20.4,6.7
		c-2.1,1.7-3.1,2.7-3.2,5C4.3,38.8,5.5,40.7,8,42.6z"/>
	<path class="st0" d="M49,56.1C39,56,29.8,55,20.4,52.8C3.7,48.9,1.7,43.4,0.8,41.6C0.2,48.9,1,54.4,1,54.9
		c0.6,6.5,8,11.6,13.3,13.5c11,3.9,22.7,6,34.7,6.1v10.7l20.1-20.1L49,45V56.1z"/>
	<path class="st0" d="M47,33.2c10,0,21.4,1.5,32.5,4.8c4.5,1.4,8.2,3.4,11.2,5.6c2.1-0.7,5-3.2,4.6-5.6c-1-6-10.1-9.5-11.6-10
		c-11-3.4-24.6-4.5-36.6-4.6V16L34.5,28.4L47,40.9V33.2z"/>
	<path class="st0" d="M99.1,41.3C98.6,44.1,94,50.1,75,53.9v19.6c7-1.6,15.2-5.6,19.7-9.5c1.8-1.6,2.9-3.8,3.6-5.4
		C100.3,53.7,99.4,44.2,99.1,41.3z"/>
</g>
</svg>
