<?xml version="1.0" encoding="utf-8"?>
<!-- Generator: Adobe Illustrator 22.1.0, SVG Export Plug-In . SVG Version: 6.00 Build 0)  -->
<svg version="1.1" id="Layer_1" xmlns="http://www.w3.org/2000/svg" xmlns:xlink="http://www.w3.org/1999/xlink" x="0px" y="0px"
	 viewBox="0 0 100 100" style="enable-background:new 0 0 100 100;" xml:space="preserve">
<style type="text/css">
	.st0{fill:#28B1FF;}
</style>
<g>
	<g>
		<path class="st0" d="M50,95C25.3,95,5.2,74.9,5.2,50.1S25.3,5.3,50,5.3s44.8,20.1,44.8,44.8C94.9,74.9,74.8,95,50,95z M50,9.3
			C27.5,9.3,9.2,27.6,9.2,50.1C9.2,72.7,27.5,91,50,91c22.5,0,40.9-18.3,40.9-40.9S72.6,9.3,50,9.3z"/>
	</g>
</g>
<g>
	<g>
		<path class="st0" d="M48.4,74.1h-4.5V43h12.3v23.3C56.2,70.6,52.7,74.1,48.4,74.1z M47.8,70.1h0.6c2.1,0,3.8-1.7,3.8-3.8V47h-4.4
			V70.1z"/>
	</g>
	<g>
		<path class="st0" d="M50,38.6c-3.4,0-6.2-2.8-6.2-6.2s2.8-6.2,6.2-6.2s6.2,2.8,6.2,6.2S53.5,38.6,50,38.6z M50,30.1
			c-1.2,0-2.2,1-2.2,2.2c0,1.2,1,2.2,2.2,2.2s2.2-1,2.2-2.2C52.3,31.1,51.3,30.1,50,30.1z"/>
	</g>
</g>
</svg>
