<?xml version="1.0" encoding="utf-8"?>
<!-- Generator: Adobe Illustrator 22.1.0, SVG Export Plug-In . SVG Version: 6.00 Build 0)  -->
<svg version="1.1" id="Layer_1" xmlns="http://www.w3.org/2000/svg" xmlns:xlink="http://www.w3.org/1999/xlink" x="0px" y="0px"
	 viewBox="0 0 100 100" style="enable-background:new 0 0 100 100;" xml:space="preserve">
<style type="text/css">
	.st0{fill:#FFFFFF;}
</style>
<title>Profile 2.4</title>
<desc>Created with Sketch.</desc>
<g>
	<g>
		<path class="st0" d="M30.7,72.4c-4.2-4.5-7.1-10.4-8.1-16.5c-1.2-2.1-2.1-4.7-2.7-7.5c-0.6-2.5-0.7-4.8-0.4-7
			c0.2-1.7,0.8-3.2,1.6-4.6c-2.7-4.1-3.6-8.2-2.8-13.2c0-0.1,0-0.1,0-0.2c0.1-0.6,0.1-1,0.2-1.4c0.1-0.6,0.2-1.1,0.3-1.6
			c1.6-7.9,6.6-12.9,16-13c0,0,0.1,0,0.1,0c3.3-4.7,8.3-7.9,13.9-7.4c13.9,1.1,24.5,7,30.2,15c3,4.1,3.6,9.6,2.9,15.9
			c-0.2,2-0.6,4.1-1,5.8c-0.2,0.8-0.4,1.5-0.6,2.1c-0.2,0.5-0.3,0.9-0.6,1.3c0,0.1-0.1,0.1-0.1,0.2c0.8,3.7-0.1,8.3-2.7,14
			c-0.6,7.1-4.7,14.2-10.3,19.3c0.1,0.2,0.1,0.4,0.2,0.6c0-0.1,0.5,2.3,0.6,3c0.1,0.4,0.2,0.8,0.3,1.1c0,0.1,0,0.1-0.1-0.1
			c1.7,2.6,1.4,6-0.6,8.4c-3.3,4-11.8,12-16.1,13.1c-1.1,0.3-2.2,0.3-3.3,0.1C42.4,98.8,33,89.3,30.2,85.3c-1.4-2-1.7-4.5-0.8-6.7
			c0.1-0.2,0.2-0.8,0.4-1.8c0.1-0.5,0.2-1,0.3-1.6c0.1-0.3,0.2-1.4,0.2-1.4C30.4,73.3,30.5,72.9,30.7,72.4L30.7,72.4z M49,74
			c9.5,0,20.6-11.4,20.6-21.5c6-12.3,0.9-12.7,0.9-12.7c-4.2-7.7-6.1-10-19.4-9.3c-13.3,0.7-14.4-3.1-14.4-3.1
			c-7,2.7-8.4,12.2-8.4,12.2c-4.4,1.7,0,12.8,1.1,13.5C30.4,63.8,39.5,74,49,74z M40.7,26.1c2,1,5.8,1.6,11.7,1.3
			C65,26.8,68.2,28.4,73.1,37c0.4,0.2,3.7-12.5,0-17.7c-3.2-4.5-11-10.9-24.9-12c-5-0.4-9.7,5.8-10.2,12
			C37.5,25.5,40.2,25.9,40.7,26.1z M27.1,32.9L27.1,32.9c0.3-0.8,0.7-1.6,1.1-2.3c1.6-2.9,3.7-5.1,6.4-6.3C34,22.9,33.8,21,34,18.6
			c0.1-1.4,0.4-2.7,0.8-4c-8.2,0.1-8.8,5.9-9.4,10.1C24.9,28,25.3,30.3,27.1,32.9z M37.4,75c-0.2,1.4-0.7,4.7-1.3,6.2
			c0.1,0.1,9.4,10.9,12.8,11.6c2.8-0.7,11.9-10.3,12.3-10.8c-0.9-1.5-1.5-4.8-1.8-6.2c-3.3,2.2-7,3.6-10.5,3.6
			C44.9,79.4,40.9,77.7,37.4,75z"/>
	</g>
</g>
</svg>
